<mxfile host="app.diagrams.net" modified="2022-04-29T09:50:35.305Z" agent="5.0 (Windows NT 10.0; Win64; x64) AppleWebKit/537.36 (KHTML, like Gecko) Chrome/100.0.4896.127 Safari/537.36" etag="QRVMfZKDItIBmHhxXbv3" version="17.4.6" type="github">
  <diagram id="C5RBs43oDa-KdzZeNtuy" name="Page-1">
    <mxGraphModel dx="1178" dy="659" grid="0" gridSize="10" guides="1" tooltips="1" connect="1" arrows="1" fold="1" page="1" pageScale="1" pageWidth="827" pageHeight="1169" math="0" shadow="0">
      <root>
        <mxCell id="WIyWlLk6GJQsqaUBKTNV-0" />
        <mxCell id="WIyWlLk6GJQsqaUBKTNV-1" parent="WIyWlLk6GJQsqaUBKTNV-0" />
        <mxCell id="JrAmXiBmuFasQa5Rlr4j-26" style="edgeStyle=orthogonalEdgeStyle;rounded=0;orthogonalLoop=1;jettySize=auto;html=1;" edge="1" parent="WIyWlLk6GJQsqaUBKTNV-1" source="JrAmXiBmuFasQa5Rlr4j-22">
          <mxGeometry relative="1" as="geometry">
            <mxPoint x="519.6304816730806" y="890.8097157674216" as="targetPoint" />
            <Array as="points" />
          </mxGeometry>
        </mxCell>
        <mxCell id="JrAmXiBmuFasQa5Rlr4j-22" value="QC comparison" style="shape=parallelogram;html=1;strokeWidth=2;perimeter=parallelogramPerimeter;whiteSpace=wrap;rounded=1;arcSize=12;size=0.23;" vertex="1" parent="WIyWlLk6GJQsqaUBKTNV-1">
          <mxGeometry x="454.72233707652515" y="779.9929400997972" width="129.92483124093116" height="76.79602553766371" as="geometry" />
        </mxCell>
        <mxCell id="JrAmXiBmuFasQa5Rlr4j-25" style="edgeStyle=orthogonalEdgeStyle;rounded=0;orthogonalLoop=1;jettySize=auto;html=1;exitX=0.5;exitY=1;exitDx=0;exitDy=0;exitPerimeter=0;" edge="1" parent="WIyWlLk6GJQsqaUBKTNV-1" source="JrAmXiBmuFasQa5Rlr4j-23">
          <mxGeometry relative="1" as="geometry">
            <mxPoint x="522.3440328685886" y="777.6657878107773" as="targetPoint" />
          </mxGeometry>
        </mxCell>
        <mxCell id="JrAmXiBmuFasQa5Rlr4j-23" value="" style="strokeWidth=2;html=1;shape=mxgraph.flowchart.extract_or_measurement;whiteSpace=wrap;" vertex="1" parent="WIyWlLk6GJQsqaUBKTNV-1">
          <mxGeometry x="465.35945776291715" y="655.878151352058" width="113.20935587660082" height="79.1231778266838" as="geometry" />
        </mxCell>
        <mxCell id="JrAmXiBmuFasQa5Rlr4j-24" value="Perform Scan" style="text;html=1;resizable=0;autosize=1;align=center;verticalAlign=middle;points=[];fillColor=none;strokeColor=none;rounded=0;" vertex="1" parent="WIyWlLk6GJQsqaUBKTNV-1">
          <mxGeometry x="488.1532878051858" y="697.76689255442" width="83" height="18" as="geometry" />
        </mxCell>
        <mxCell id="JrAmXiBmuFasQa5Rlr4j-118" style="edgeStyle=orthogonalEdgeStyle;rounded=0;orthogonalLoop=1;jettySize=auto;html=1;exitX=0.5;exitY=1;exitDx=0;exitDy=0;" edge="1" parent="WIyWlLk6GJQsqaUBKTNV-1" source="JrAmXiBmuFasQa5Rlr4j-27">
          <mxGeometry relative="1" as="geometry">
            <mxPoint x="519.7360901520408" y="1001.63847162701" as="targetPoint" />
          </mxGeometry>
        </mxCell>
        <mxCell id="JrAmXiBmuFasQa5Rlr4j-27" value="Results logging, update fields" style="rounded=1;whiteSpace=wrap;html=1;" vertex="1" parent="WIyWlLk6GJQsqaUBKTNV-1">
          <mxGeometry x="460.9906403381491" y="890.9205325430894" width="117.38822471768343" height="70.59028610027673" as="geometry" />
        </mxCell>
        <mxCell id="JrAmXiBmuFasQa5Rlr4j-134" style="edgeStyle=orthogonalEdgeStyle;rounded=0;orthogonalLoop=1;jettySize=auto;html=1;exitX=0.5;exitY=1;exitDx=0;exitDy=0;" edge="1" parent="WIyWlLk6GJQsqaUBKTNV-1" source="WIyWlLk6GJQsqaUBKTNV-3">
          <mxGeometry relative="1" as="geometry">
            <mxPoint x="521.9526236658426" y="99.84671855283932" as="targetPoint" />
          </mxGeometry>
        </mxCell>
        <mxCell id="WIyWlLk6GJQsqaUBKTNV-3" value="Start QC" style="rounded=1;whiteSpace=wrap;html=1;fontSize=12;glass=0;strokeWidth=1;shadow=0;" parent="WIyWlLk6GJQsqaUBKTNV-1" vertex="1">
          <mxGeometry x="479.172518768532" y="59.22733314448827" width="85.58715538451833" height="26.537701541457416" as="geometry" />
        </mxCell>
        <mxCell id="WIyWlLk6GJQsqaUBKTNV-6" value="is robot homed&lt;br&gt;or aligned?" style="rhombus;whiteSpace=wrap;html=1;shadow=0;fontFamily=Helvetica;fontSize=12;align=center;strokeWidth=1;spacing=6;spacingTop=-4;" parent="WIyWlLk6GJQsqaUBKTNV-1" vertex="1">
          <mxGeometry x="479.04" y="197.84" width="79.96" height="79.16" as="geometry" />
        </mxCell>
        <mxCell id="WIyWlLk6GJQsqaUBKTNV-2" value="" style="rounded=0;html=1;jettySize=auto;orthogonalLoop=1;fontSize=11;endArrow=block;endFill=0;endSize=8;strokeWidth=1;shadow=0;labelBackgroundColor=none;edgeStyle=orthogonalEdgeStyle;" parent="WIyWlLk6GJQsqaUBKTNV-1" target="WIyWlLk6GJQsqaUBKTNV-6" edge="1">
          <mxGeometry relative="1" as="geometry">
            <mxPoint x="521.8293334805373" y="158.03087043431702" as="sourcePoint" />
          </mxGeometry>
        </mxCell>
        <mxCell id="JrAmXiBmuFasQa5Rlr4j-0" style="edgeStyle=orthogonalEdgeStyle;rounded=0;orthogonalLoop=1;jettySize=auto;html=1;exitX=0.5;exitY=0;exitDx=0;exitDy=0;" edge="1" parent="WIyWlLk6GJQsqaUBKTNV-1" source="WIyWlLk6GJQsqaUBKTNV-7">
          <mxGeometry relative="1" as="geometry">
            <mxPoint x="521.8293334805375" y="177.93414659040997" as="targetPoint" />
            <Array as="points">
              <mxPoint x="657.3423295060248" y="177.93414659040997" />
            </Array>
          </mxGeometry>
        </mxCell>
        <mxCell id="WIyWlLk6GJQsqaUBKTNV-7" value="Home robot" style="rounded=1;whiteSpace=wrap;html=1;fontSize=12;glass=0;strokeWidth=1;shadow=0;" parent="WIyWlLk6GJQsqaUBKTNV-1" vertex="1">
          <mxGeometry x="614.5487518137656" y="221.05791159527828" width="85.58715538451833" height="26.537701541457416" as="geometry" />
        </mxCell>
        <mxCell id="WIyWlLk6GJQsqaUBKTNV-5" value="No" style="edgeStyle=orthogonalEdgeStyle;rounded=0;html=1;jettySize=auto;orthogonalLoop=1;fontSize=11;endArrow=block;endFill=0;endSize=8;strokeWidth=1;shadow=0;labelBackgroundColor=none;" parent="WIyWlLk6GJQsqaUBKTNV-1" source="WIyWlLk6GJQsqaUBKTNV-6" target="WIyWlLk6GJQsqaUBKTNV-7" edge="1">
          <mxGeometry y="10" relative="1" as="geometry">
            <mxPoint as="offset" />
          </mxGeometry>
        </mxCell>
        <mxCell id="WIyWlLk6GJQsqaUBKTNV-10" value="is table pos. 1?" style="rhombus;whiteSpace=wrap;html=1;shadow=0;fontFamily=Helvetica;fontSize=12;align=center;strokeWidth=1;spacing=6;spacingTop=-4;" parent="WIyWlLk6GJQsqaUBKTNV-1" vertex="1">
          <mxGeometry x="479.0357557882783" y="303.9882289123327" width="85.58715538451833" height="79.61310462437227" as="geometry" />
        </mxCell>
        <mxCell id="WIyWlLk6GJQsqaUBKTNV-4" value="Yes" style="rounded=0;html=1;jettySize=auto;orthogonalLoop=1;fontSize=11;endArrow=block;endFill=0;endSize=8;strokeWidth=1;shadow=0;labelBackgroundColor=none;edgeStyle=orthogonalEdgeStyle;" parent="WIyWlLk6GJQsqaUBKTNV-1" source="WIyWlLk6GJQsqaUBKTNV-6" target="WIyWlLk6GJQsqaUBKTNV-10" edge="1">
          <mxGeometry x="-0.7477" y="-13" relative="1" as="geometry">
            <mxPoint as="offset" />
          </mxGeometry>
        </mxCell>
        <mxCell id="JrAmXiBmuFasQa5Rlr4j-1" style="edgeStyle=orthogonalEdgeStyle;rounded=0;orthogonalLoop=1;jettySize=auto;html=1;exitX=0.5;exitY=0;exitDx=0;exitDy=0;" edge="1" parent="WIyWlLk6GJQsqaUBKTNV-1" source="WIyWlLk6GJQsqaUBKTNV-12">
          <mxGeometry relative="1" as="geometry">
            <mxPoint x="521.8293334805375" y="277.4505273708753" as="targetPoint" />
            <Array as="points">
              <mxPoint x="635.9455406598953" y="277.4505273708753" />
            </Array>
          </mxGeometry>
        </mxCell>
        <mxCell id="WIyWlLk6GJQsqaUBKTNV-12" value="Jog table to Align1" style="rounded=1;whiteSpace=wrap;html=1;fontSize=12;glass=0;strokeWidth=1;shadow=0;" parent="WIyWlLk6GJQsqaUBKTNV-1" vertex="1">
          <mxGeometry x="593.1519629676361" y="330.5259304537902" width="85.58715538451833" height="26.537701541457416" as="geometry" />
        </mxCell>
        <mxCell id="WIyWlLk6GJQsqaUBKTNV-9" value="Yes" style="edgeStyle=orthogonalEdgeStyle;rounded=0;html=1;jettySize=auto;orthogonalLoop=1;fontSize=11;endArrow=block;endFill=0;endSize=8;strokeWidth=1;shadow=0;labelBackgroundColor=none;" parent="WIyWlLk6GJQsqaUBKTNV-1" source="WIyWlLk6GJQsqaUBKTNV-10" target="WIyWlLk6GJQsqaUBKTNV-12" edge="1">
          <mxGeometry x="-1" y="-110" relative="1" as="geometry">
            <mxPoint x="-84" y="-39" as="offset" />
          </mxGeometry>
        </mxCell>
        <mxCell id="JrAmXiBmuFasQa5Rlr4j-7" value="is cartrige inserted?" style="rhombus;whiteSpace=wrap;html=1;shadow=0;fontFamily=Helvetica;fontSize=12;align=center;strokeWidth=1;spacing=6;spacingTop=-4;" vertex="1" parent="WIyWlLk6GJQsqaUBKTNV-1">
          <mxGeometry x="479.0357557882783" y="423.407885848891" width="85.58715538451833" height="79.61310462437227" as="geometry" />
        </mxCell>
        <mxCell id="WIyWlLk6GJQsqaUBKTNV-8" value="No" style="rounded=0;html=1;jettySize=auto;orthogonalLoop=1;fontSize=11;endArrow=block;endFill=0;endSize=8;strokeWidth=1;shadow=0;labelBackgroundColor=none;edgeStyle=orthogonalEdgeStyle;entryX=0.5;entryY=0;entryDx=0;entryDy=0;" parent="WIyWlLk6GJQsqaUBKTNV-1" source="WIyWlLk6GJQsqaUBKTNV-10" target="JrAmXiBmuFasQa5Rlr4j-7" edge="1">
          <mxGeometry x="-1" y="99" relative="1" as="geometry">
            <mxPoint x="-29" y="-70" as="offset" />
            <mxPoint x="521.8293334805375" y="416.77346046352676" as="targetPoint" />
            <Array as="points" />
          </mxGeometry>
        </mxCell>
        <mxCell id="JrAmXiBmuFasQa5Rlr4j-8" style="edgeStyle=orthogonalEdgeStyle;rounded=0;orthogonalLoop=1;jettySize=auto;html=1;exitX=0.5;exitY=0;exitDx=0;exitDy=0;" edge="1" source="JrAmXiBmuFasQa5Rlr4j-9" parent="WIyWlLk6GJQsqaUBKTNV-1">
          <mxGeometry relative="1" as="geometry">
            <mxPoint x="521.8293334805375" y="396.8701843074336" as="targetPoint" />
            <Array as="points">
              <mxPoint x="635.9455406598953" y="396.8701843074336" />
            </Array>
          </mxGeometry>
        </mxCell>
        <mxCell id="JrAmXiBmuFasQa5Rlr4j-9" value="insert cartridge" style="rounded=1;whiteSpace=wrap;html=1;fontSize=12;glass=0;strokeWidth=1;shadow=0;" vertex="1" parent="WIyWlLk6GJQsqaUBKTNV-1">
          <mxGeometry x="593.1519629676361" y="449.9455873903485" width="85.58715538451833" height="26.537701541457416" as="geometry" />
        </mxCell>
        <mxCell id="JrAmXiBmuFasQa5Rlr4j-6" value="Yes" style="edgeStyle=orthogonalEdgeStyle;rounded=0;html=1;jettySize=auto;orthogonalLoop=1;fontSize=11;endArrow=block;endFill=0;endSize=8;strokeWidth=1;shadow=0;labelBackgroundColor=none;" edge="1" source="JrAmXiBmuFasQa5Rlr4j-7" target="JrAmXiBmuFasQa5Rlr4j-9" parent="WIyWlLk6GJQsqaUBKTNV-1">
          <mxGeometry x="-1" y="-62" relative="1" as="geometry">
            <mxPoint x="-26" y="12" as="offset" />
          </mxGeometry>
        </mxCell>
        <mxCell id="JrAmXiBmuFasQa5Rlr4j-11" value="No" style="rounded=0;html=1;jettySize=auto;orthogonalLoop=1;fontSize=11;endArrow=block;endFill=0;endSize=8;strokeWidth=1;shadow=0;labelBackgroundColor=none;edgeStyle=orthogonalEdgeStyle;" edge="1" source="JrAmXiBmuFasQa5Rlr4j-13" parent="WIyWlLk6GJQsqaUBKTNV-1">
          <mxGeometry x="-1" y="99" relative="1" as="geometry">
            <mxPoint x="-29" y="-70" as="offset" />
            <mxPoint x="521.8293334805375" y="655.6127743366435" as="targetPoint" />
            <Array as="points">
              <mxPoint x="521.8293334805375" y="635.7094981805503" />
              <mxPoint x="521.8293334805375" y="635.7094981805503" />
            </Array>
          </mxGeometry>
        </mxCell>
        <mxCell id="JrAmXiBmuFasQa5Rlr4j-13" value="is sensor?" style="rhombus;whiteSpace=wrap;html=1;shadow=0;fontFamily=Helvetica;fontSize=12;align=center;strokeWidth=1;spacing=6;spacingTop=-4;" vertex="1" parent="WIyWlLk6GJQsqaUBKTNV-1">
          <mxGeometry x="479.0357557882783" y="542.8275427854494" width="85.58715538451833" height="79.61310462437227" as="geometry" />
        </mxCell>
        <mxCell id="JrAmXiBmuFasQa5Rlr4j-5" value="No" style="rounded=0;html=1;jettySize=auto;orthogonalLoop=1;fontSize=11;endArrow=block;endFill=0;endSize=8;strokeWidth=1;shadow=0;labelBackgroundColor=none;edgeStyle=orthogonalEdgeStyle;entryX=0.5;entryY=0;entryDx=0;entryDy=0;" edge="1" source="JrAmXiBmuFasQa5Rlr4j-7" parent="WIyWlLk6GJQsqaUBKTNV-1" target="JrAmXiBmuFasQa5Rlr4j-13">
          <mxGeometry x="-1" y="99" relative="1" as="geometry">
            <mxPoint x="-29" y="-70" as="offset" />
            <mxPoint x="521.8293334805375" y="536.1931174000849" as="targetPoint" />
            <Array as="points" />
          </mxGeometry>
        </mxCell>
        <mxCell id="JrAmXiBmuFasQa5Rlr4j-15" value="ERROR!" style="rounded=1;whiteSpace=wrap;html=1;fontSize=12;glass=0;strokeWidth=1;shadow=0;" vertex="1" parent="WIyWlLk6GJQsqaUBKTNV-1">
          <mxGeometry x="593.1519629676361" y="569.3652443269069" width="85.58715538451833" height="26.537701541457416" as="geometry" />
        </mxCell>
        <mxCell id="JrAmXiBmuFasQa5Rlr4j-12" value="Yes" style="edgeStyle=orthogonalEdgeStyle;rounded=0;html=1;jettySize=auto;orthogonalLoop=1;fontSize=11;endArrow=block;endFill=0;endSize=8;strokeWidth=1;shadow=0;labelBackgroundColor=none;" edge="1" source="JrAmXiBmuFasQa5Rlr4j-13" target="JrAmXiBmuFasQa5Rlr4j-15" parent="WIyWlLk6GJQsqaUBKTNV-1">
          <mxGeometry x="-1" y="-54" relative="1" as="geometry">
            <mxPoint x="-20" y="12" as="offset" />
          </mxGeometry>
        </mxCell>
        <mxCell id="JrAmXiBmuFasQa5Rlr4j-54" style="edgeStyle=orthogonalEdgeStyle;rounded=0;orthogonalLoop=1;jettySize=auto;html=1;exitX=0.5;exitY=0;exitDx=0;exitDy=0;" edge="1" parent="WIyWlLk6GJQsqaUBKTNV-1" source="JrAmXiBmuFasQa5Rlr4j-51">
          <mxGeometry relative="1" as="geometry">
            <mxPoint x="356.63979568252046" y="956.8565140653259" as="targetPoint" />
          </mxGeometry>
        </mxCell>
        <mxCell id="JrAmXiBmuFasQa5Rlr4j-51" value="is table pos. 2?" style="rhombus;whiteSpace=wrap;html=1;shadow=0;fontFamily=Helvetica;fontSize=12;align=center;strokeWidth=1;spacing=6;spacingTop=-4;" vertex="1" parent="WIyWlLk6GJQsqaUBKTNV-1">
          <mxGeometry x="314.160385149202" y="1001.994286481025" width="85.58715538451833" height="79.61310462437227" as="geometry" />
        </mxCell>
        <mxCell id="JrAmXiBmuFasQa5Rlr4j-55" value="Yes" style="text;html=1;resizable=0;autosize=1;align=center;verticalAlign=middle;points=[];fillColor=none;strokeColor=none;rounded=0;" vertex="1" parent="WIyWlLk6GJQsqaUBKTNV-1">
          <mxGeometry x="365.0666055769353" y="975.4737323774866" width="40" height="20" as="geometry" />
        </mxCell>
        <mxCell id="JrAmXiBmuFasQa5Rlr4j-61" style="edgeStyle=orthogonalEdgeStyle;rounded=0;orthogonalLoop=1;jettySize=auto;html=1;entryX=0.5;entryY=1;entryDx=0;entryDy=0;" edge="1" parent="WIyWlLk6GJQsqaUBKTNV-1" target="JrAmXiBmuFasQa5Rlr4j-51">
          <mxGeometry relative="1" as="geometry">
            <mxPoint x="359.7480452337392" y="1127.5143485934673" as="targetPoint" />
            <mxPoint x="233" y="1060" as="sourcePoint" />
            <Array as="points">
              <mxPoint x="232.8623913317772" y="1112" />
              <mxPoint x="356.7088678947701" y="1112" />
            </Array>
          </mxGeometry>
        </mxCell>
        <mxCell id="JrAmXiBmuFasQa5Rlr4j-59" value="jog table to Align 2" style="rounded=1;whiteSpace=wrap;html=1;fontSize=12;glass=0;strokeWidth=1;shadow=0;" vertex="1" parent="WIyWlLk6GJQsqaUBKTNV-1">
          <mxGeometry x="190.58660463062273" y="1026.6699466608256" width="85.58715538451833" height="26.537701541457416" as="geometry" />
        </mxCell>
        <mxCell id="JrAmXiBmuFasQa5Rlr4j-64" value="" style="group" vertex="1" connectable="0" parent="WIyWlLk6GJQsqaUBKTNV-1">
          <mxGeometry x="593.1492669232224" y="181.91765972794846" width="206.25278972935453" height="26.53770154145742" as="geometry" />
        </mxCell>
        <mxCell id="JrAmXiBmuFasQa5Rlr4j-62" value="{Time constraint 1}" style="endArrow=none;html=1;endSize=12;startArrow=none;startSize=14;startFill=0;edgeStyle=orthogonalEdgeStyle;align=center;verticalAlign=bottom;endFill=0;rounded=0;" edge="1" parent="JrAmXiBmuFasQa5Rlr4j-64">
          <mxGeometry y="3" relative="1" as="geometry">
            <mxPoint y="15.92262092487444" as="sourcePoint" />
            <mxPoint x="121.567093558766" y="15.92262092487444" as="targetPoint" />
          </mxGeometry>
        </mxCell>
        <mxCell id="JrAmXiBmuFasQa5Rlr4j-63" value="ERROR!" style="rounded=1;whiteSpace=wrap;html=1;fontSize=12;glass=0;strokeWidth=1;shadow=0;" vertex="1" parent="JrAmXiBmuFasQa5Rlr4j-64">
          <mxGeometry x="120.66563434483625" width="85.58715538451833" height="26.537701541457416" as="geometry" />
        </mxCell>
        <mxCell id="JrAmXiBmuFasQa5Rlr4j-65" value="" style="group" vertex="1" connectable="0" parent="WIyWlLk6GJQsqaUBKTNV-1">
          <mxGeometry x="600.7472102706453" y="282.76092558548663" width="206.25278972935453" height="26.53770154145742" as="geometry" />
        </mxCell>
        <mxCell id="JrAmXiBmuFasQa5Rlr4j-66" value="{Time constraint 2}" style="endArrow=none;html=1;endSize=12;startArrow=none;startSize=14;startFill=0;edgeStyle=orthogonalEdgeStyle;align=center;verticalAlign=bottom;endFill=0;rounded=0;" edge="1" parent="JrAmXiBmuFasQa5Rlr4j-65">
          <mxGeometry y="3" relative="1" as="geometry">
            <mxPoint y="15.92262092487444" as="sourcePoint" />
            <mxPoint x="121.567093558766" y="15.92262092487444" as="targetPoint" />
          </mxGeometry>
        </mxCell>
        <mxCell id="JrAmXiBmuFasQa5Rlr4j-67" value="ERROR!" style="rounded=1;whiteSpace=wrap;html=1;fontSize=12;glass=0;strokeWidth=1;shadow=0;" vertex="1" parent="JrAmXiBmuFasQa5Rlr4j-65">
          <mxGeometry x="120.66563434483625" width="85.58715538451833" height="26.537701541457416" as="geometry" />
        </mxCell>
        <mxCell id="JrAmXiBmuFasQa5Rlr4j-68" value="" style="group" vertex="1" connectable="0" parent="WIyWlLk6GJQsqaUBKTNV-1">
          <mxGeometry x="592.2451116648791" y="406.8757143332259" width="206.25278972935453" height="26.53770154145742" as="geometry" />
        </mxCell>
        <mxCell id="JrAmXiBmuFasQa5Rlr4j-69" value="{Time constraint 3}" style="endArrow=none;html=1;endSize=12;startArrow=none;startSize=14;startFill=0;edgeStyle=orthogonalEdgeStyle;align=center;verticalAlign=bottom;endFill=0;rounded=0;" edge="1" parent="JrAmXiBmuFasQa5Rlr4j-68">
          <mxGeometry y="3" relative="1" as="geometry">
            <mxPoint y="15.92262092487444" as="sourcePoint" />
            <mxPoint x="121.567093558766" y="15.92262092487444" as="targetPoint" />
          </mxGeometry>
        </mxCell>
        <mxCell id="JrAmXiBmuFasQa5Rlr4j-70" value="ERROR!" style="rounded=1;whiteSpace=wrap;html=1;fontSize=12;glass=0;strokeWidth=1;shadow=0;" vertex="1" parent="JrAmXiBmuFasQa5Rlr4j-68">
          <mxGeometry x="120.66563434483625" width="85.58715538451833" height="26.537701541457416" as="geometry" />
        </mxCell>
        <mxCell id="JrAmXiBmuFasQa5Rlr4j-72" value="{Time constraint 5}" style="endArrow=none;html=1;endSize=12;startArrow=none;startSize=14;startFill=0;edgeStyle=orthogonalEdgeStyle;align=center;verticalAlign=bottom;endFill=0;rounded=0;" edge="1" parent="WIyWlLk6GJQsqaUBKTNV-1">
          <mxGeometry y="3" relative="1" as="geometry">
            <mxPoint x="116.48469307930101" y="1077.0927156646983" as="sourcePoint" />
            <mxPoint x="349.7415538451833" y="1077.0927156646983" as="targetPoint" />
          </mxGeometry>
        </mxCell>
        <mxCell id="JrAmXiBmuFasQa5Rlr4j-73" value="ERROR!" style="rounded=1;whiteSpace=wrap;html=1;fontSize=12;glass=0;strokeWidth=1;shadow=0;" vertex="1" parent="WIyWlLk6GJQsqaUBKTNV-1">
          <mxGeometry x="30" y="1063.9083772665708" width="85.58715538451833" height="26.537701541457416" as="geometry" />
        </mxCell>
        <mxCell id="JrAmXiBmuFasQa5Rlr4j-86" style="edgeStyle=orthogonalEdgeStyle;rounded=0;orthogonalLoop=1;jettySize=auto;html=1;exitX=0.5;exitY=0;exitDx=0;exitDy=0;" edge="1" parent="WIyWlLk6GJQsqaUBKTNV-1" source="JrAmXiBmuFasQa5Rlr4j-74">
          <mxGeometry relative="1" as="geometry">
            <mxPoint x="357.0579625891111" y="828.3180394348547" as="targetPoint" />
          </mxGeometry>
        </mxCell>
        <mxCell id="JrAmXiBmuFasQa5Rlr4j-87" style="edgeStyle=orthogonalEdgeStyle;rounded=0;orthogonalLoop=1;jettySize=auto;html=1;exitX=0;exitY=0.5;exitDx=0;exitDy=0;" edge="1" parent="WIyWlLk6GJQsqaUBKTNV-1" source="JrAmXiBmuFasQa5Rlr4j-74">
          <mxGeometry relative="1" as="geometry">
            <mxPoint x="280.2571298340799" y="916.791757089493" as="targetPoint" />
          </mxGeometry>
        </mxCell>
        <mxCell id="JrAmXiBmuFasQa5Rlr4j-74" value="is cartrige inserted?" style="rhombus;whiteSpace=wrap;html=1;shadow=0;fontFamily=Helvetica;fontSize=12;align=center;strokeWidth=1;spacing=6;spacingTop=-4;" vertex="1" parent="WIyWlLk6GJQsqaUBKTNV-1">
          <mxGeometry x="314.160385149202" y="876.9543526303174" width="85.58715538451833" height="79.61310462437227" as="geometry" />
        </mxCell>
        <mxCell id="JrAmXiBmuFasQa5Rlr4j-75" value="" style="group" vertex="1" connectable="0" parent="WIyWlLk6GJQsqaUBKTNV-1">
          <mxGeometry x="276.1706684120876" y="1026.6710827359293" width="34.190745063402936" height="15.514348593467414" as="geometry" />
        </mxCell>
        <mxCell id="JrAmXiBmuFasQa5Rlr4j-58" style="edgeStyle=orthogonalEdgeStyle;rounded=0;orthogonalLoop=1;jettySize=auto;html=1;exitX=0;exitY=0.5;exitDx=0;exitDy=0;" edge="1" parent="JrAmXiBmuFasQa5Rlr4j-75" source="JrAmXiBmuFasQa5Rlr4j-51">
          <mxGeometry relative="1" as="geometry">
            <mxPoint y="14.983594562638404" as="targetPoint" />
          </mxGeometry>
        </mxCell>
        <mxCell id="JrAmXiBmuFasQa5Rlr4j-60" value="No" style="text;html=1;resizable=0;autosize=1;align=center;verticalAlign=middle;points=[];fillColor=none;strokeColor=none;rounded=0;" vertex="1" parent="JrAmXiBmuFasQa5Rlr4j-75">
          <mxGeometry x="11.396915021134314" width="30" height="20" as="geometry" />
        </mxCell>
        <mxCell id="JrAmXiBmuFasQa5Rlr4j-90" style="edgeStyle=orthogonalEdgeStyle;rounded=0;orthogonalLoop=1;jettySize=auto;html=1;exitX=0.5;exitY=1;exitDx=0;exitDy=0;entryX=0.5;entryY=1;entryDx=0;entryDy=0;" edge="1" parent="WIyWlLk6GJQsqaUBKTNV-1" source="JrAmXiBmuFasQa5Rlr4j-88" target="JrAmXiBmuFasQa5Rlr4j-74">
          <mxGeometry relative="1" as="geometry">
            <Array as="points">
              <mxPoint x="235.1417743360041" y="985.5580589632403" />
              <mxPoint x="356.7088678947701" y="985.5580589632403" />
            </Array>
          </mxGeometry>
        </mxCell>
        <mxCell id="JrAmXiBmuFasQa5Rlr4j-88" value="insert cartridge" style="rounded=1;whiteSpace=wrap;html=1;fontSize=12;glass=0;strokeWidth=1;shadow=0;" vertex="1" parent="WIyWlLk6GJQsqaUBKTNV-1">
          <mxGeometry x="192.59598763484956" y="903.4920541717748" width="85.58715538451833" height="26.537701541457416" as="geometry" />
        </mxCell>
        <mxCell id="JrAmXiBmuFasQa5Rlr4j-91" value="" style="group" vertex="1" connectable="0" parent="WIyWlLk6GJQsqaUBKTNV-1">
          <mxGeometry x="274.651079742603" y="897.1262719804763" width="34.190745063402936" height="15.514348593467414" as="geometry" />
        </mxCell>
        <mxCell id="JrAmXiBmuFasQa5Rlr4j-92" style="edgeStyle=orthogonalEdgeStyle;rounded=0;orthogonalLoop=1;jettySize=auto;html=1;exitX=0;exitY=0.5;exitDx=0;exitDy=0;" edge="1" parent="JrAmXiBmuFasQa5Rlr4j-91">
          <mxGeometry relative="1" as="geometry">
            <mxPoint y="14.983594562638404" as="targetPoint" />
          </mxGeometry>
        </mxCell>
        <mxCell id="JrAmXiBmuFasQa5Rlr4j-93" value="No" style="text;html=1;resizable=0;autosize=1;align=center;verticalAlign=middle;points=[];fillColor=none;strokeColor=none;rounded=0;" vertex="1" parent="JrAmXiBmuFasQa5Rlr4j-91">
          <mxGeometry x="11.396915021134314" width="30" height="20" as="geometry" />
        </mxCell>
        <mxCell id="JrAmXiBmuFasQa5Rlr4j-94" value="{Time constraint 6" style="endArrow=none;html=1;endSize=12;startArrow=none;startSize=14;startFill=0;edgeStyle=orthogonalEdgeStyle;align=center;verticalAlign=bottom;endFill=0;rounded=0;" edge="1" parent="WIyWlLk6GJQsqaUBKTNV-1">
          <mxGeometry y="3" relative="1" as="geometry">
            <mxPoint x="115.58813576430508" y="954.5293617763057" as="sourcePoint" />
            <mxPoint x="293.50917513090667" y="954.5293617763057" as="targetPoint" />
            <Array as="points">
              <mxPoint x="289.71020345719523" y="954.5293617763057" />
              <mxPoint x="289.71020345719523" y="954.5293617763057" />
            </Array>
          </mxGeometry>
        </mxCell>
        <mxCell id="JrAmXiBmuFasQa5Rlr4j-95" value="ERROR!" style="rounded=1;whiteSpace=wrap;html=1;fontSize=12;glass=0;strokeWidth=1;shadow=0;" vertex="1" parent="WIyWlLk6GJQsqaUBKTNV-1">
          <mxGeometry x="30" y="940.569305948505" width="85.58715538451833" height="26.537701541457416" as="geometry" />
        </mxCell>
        <mxCell id="JrAmXiBmuFasQa5Rlr4j-96" value="Yes" style="text;html=1;resizable=0;autosize=1;align=center;verticalAlign=middle;points=[];fillColor=none;strokeColor=none;rounded=0;" vertex="1" parent="WIyWlLk6GJQsqaUBKTNV-1">
          <mxGeometry x="369.3594435682292" y="835.0688776066065" width="40" height="20" as="geometry" />
        </mxCell>
        <mxCell id="JrAmXiBmuFasQa5Rlr4j-105" style="edgeStyle=orthogonalEdgeStyle;rounded=0;orthogonalLoop=1;jettySize=auto;html=1;exitX=0;exitY=0.5;exitDx=0;exitDy=0;" edge="1" parent="WIyWlLk6GJQsqaUBKTNV-1" source="JrAmXiBmuFasQa5Rlr4j-97">
          <mxGeometry relative="1" as="geometry">
            <mxPoint x="258.90074853321556" y="787.6452877168454" as="targetPoint" />
          </mxGeometry>
        </mxCell>
        <mxCell id="JrAmXiBmuFasQa5Rlr4j-106" style="edgeStyle=orthogonalEdgeStyle;rounded=0;orthogonalLoop=1;jettySize=auto;html=1;exitX=0.5;exitY=0;exitDx=0;exitDy=0;" edge="1" parent="WIyWlLk6GJQsqaUBKTNV-1" source="JrAmXiBmuFasQa5Rlr4j-97">
          <mxGeometry relative="1" as="geometry">
            <mxPoint x="357.0579625891111" y="689.946822249875" as="targetPoint" />
          </mxGeometry>
        </mxCell>
        <mxCell id="JrAmXiBmuFasQa5Rlr4j-97" value="is sensor?" style="rhombus;whiteSpace=wrap;html=1;shadow=0;fontFamily=Helvetica;fontSize=12;align=center;strokeWidth=1;spacing=6;spacingTop=-4;" vertex="1" parent="WIyWlLk6GJQsqaUBKTNV-1">
          <mxGeometry x="314.160385149202" y="747.7022731364833" width="85.58715538451833" height="79.61310462437227" as="geometry" />
        </mxCell>
        <mxCell id="JrAmXiBmuFasQa5Rlr4j-100" value="" style="group" vertex="1" connectable="0" parent="WIyWlLk6GJQsqaUBKTNV-1">
          <mxGeometry x="274.651079742603" y="767.3487459961214" width="34.190745063402936" height="15.514348593467414" as="geometry" />
        </mxCell>
        <mxCell id="JrAmXiBmuFasQa5Rlr4j-101" style="edgeStyle=orthogonalEdgeStyle;rounded=0;orthogonalLoop=1;jettySize=auto;html=1;exitX=0;exitY=0.5;exitDx=0;exitDy=0;" edge="1" parent="JrAmXiBmuFasQa5Rlr4j-100">
          <mxGeometry relative="1" as="geometry">
            <mxPoint y="14.983594562638404" as="targetPoint" />
          </mxGeometry>
        </mxCell>
        <mxCell id="JrAmXiBmuFasQa5Rlr4j-102" value="No" style="text;html=1;resizable=0;autosize=1;align=center;verticalAlign=middle;points=[];fillColor=none;strokeColor=none;rounded=0;" vertex="1" parent="JrAmXiBmuFasQa5Rlr4j-100">
          <mxGeometry x="11.396915021134314" width="30" height="20" as="geometry" />
        </mxCell>
        <mxCell id="JrAmXiBmuFasQa5Rlr4j-103" value="Yes" style="text;html=1;resizable=0;autosize=1;align=center;verticalAlign=middle;points=[];fillColor=none;strokeColor=none;rounded=0;" vertex="1" parent="WIyWlLk6GJQsqaUBKTNV-1">
          <mxGeometry x="369.3594435682292" y="705.2913516222518" width="40" height="20" as="geometry" />
        </mxCell>
        <mxCell id="JrAmXiBmuFasQa5Rlr4j-128" style="edgeStyle=orthogonalEdgeStyle;rounded=0;orthogonalLoop=1;jettySize=auto;html=1;exitX=0.5;exitY=0;exitDx=0;exitDy=0;exitPerimeter=0;" edge="1" parent="WIyWlLk6GJQsqaUBKTNV-1" source="JrAmXiBmuFasQa5Rlr4j-108">
          <mxGeometry relative="1" as="geometry">
            <mxPoint x="356.7088678947701" y="586.839300111128" as="targetPoint" />
          </mxGeometry>
        </mxCell>
        <mxCell id="JrAmXiBmuFasQa5Rlr4j-108" value="&lt;br&gt;&lt;br&gt;Perform Scan" style="strokeWidth=2;html=1;shape=mxgraph.flowchart.extract_or_measurement;whiteSpace=wrap;" vertex="1" parent="WIyWlLk6GJQsqaUBKTNV-1">
          <mxGeometry x="300.34732414358723" y="613.989410149696" width="113.20935587660082" height="79.1231778266838" as="geometry" />
        </mxCell>
        <mxCell id="JrAmXiBmuFasQa5Rlr4j-109" value="QC comparison" style="shape=parallelogram;html=1;strokeWidth=2;perimeter=parallelogramPerimeter;whiteSpace=wrap;rounded=1;arcSize=12;size=0.23;" vertex="1" parent="WIyWlLk6GJQsqaUBKTNV-1">
          <mxGeometry x="297.44490978487164" y="507.7161222844442" width="129.92483124093116" height="76.79602553766371" as="geometry" />
        </mxCell>
        <mxCell id="JrAmXiBmuFasQa5Rlr4j-125" style="edgeStyle=orthogonalEdgeStyle;rounded=0;orthogonalLoop=1;jettySize=auto;html=1;exitX=0;exitY=0.5;exitDx=0;exitDy=0;entryX=1;entryY=0.5;entryDx=0;entryDy=0;" edge="1" parent="WIyWlLk6GJQsqaUBKTNV-1" source="JrAmXiBmuFasQa5Rlr4j-112" target="JrAmXiBmuFasQa5Rlr4j-51">
          <mxGeometry relative="1" as="geometry" />
        </mxCell>
        <mxCell id="JrAmXiBmuFasQa5Rlr4j-112" value="is cartrige ejected?" style="rhombus;whiteSpace=wrap;html=1;shadow=0;fontFamily=Helvetica;fontSize=12;align=center;strokeWidth=1;spacing=6;spacingTop=-4;" vertex="1" parent="WIyWlLk6GJQsqaUBKTNV-1">
          <mxGeometry x="476.75637278405145" y="1002.0465453394452" width="85.58715538451833" height="79.61310462437227" as="geometry" />
        </mxCell>
        <mxCell id="JrAmXiBmuFasQa5Rlr4j-113" value="eject cartridge" style="rounded=1;whiteSpace=wrap;html=1;fontSize=12;glass=0;strokeWidth=1;shadow=0;" vertex="1" parent="WIyWlLk6GJQsqaUBKTNV-1">
          <mxGeometry x="590.8725799634093" y="1028.5842468809028" width="85.58715538451833" height="26.537701541457416" as="geometry" />
        </mxCell>
        <mxCell id="JrAmXiBmuFasQa5Rlr4j-124" style="edgeStyle=orthogonalEdgeStyle;rounded=0;orthogonalLoop=1;jettySize=auto;html=1;exitX=1;exitY=0.5;exitDx=0;exitDy=0;entryX=0;entryY=0.5;entryDx=0;entryDy=0;" edge="1" parent="WIyWlLk6GJQsqaUBKTNV-1" source="JrAmXiBmuFasQa5Rlr4j-112" target="JrAmXiBmuFasQa5Rlr4j-113">
          <mxGeometry relative="1" as="geometry" />
        </mxCell>
        <mxCell id="JrAmXiBmuFasQa5Rlr4j-120" style="edgeStyle=orthogonalEdgeStyle;rounded=0;orthogonalLoop=1;jettySize=auto;html=1;exitX=0.5;exitY=0;exitDx=0;exitDy=0;" edge="1" parent="WIyWlLk6GJQsqaUBKTNV-1">
          <mxGeometry relative="1" as="geometry">
            <mxPoint x="520.8264049586775" y="974.7331263683141" as="targetPoint" />
            <mxPoint x="634.9426121380351" y="1027.8085294512296" as="sourcePoint" />
            <Array as="points">
              <mxPoint x="634.9426121380354" y="974.7331263683142" />
            </Array>
          </mxGeometry>
        </mxCell>
        <mxCell id="JrAmXiBmuFasQa5Rlr4j-121" value="" style="group" vertex="1" connectable="0" parent="WIyWlLk6GJQsqaUBKTNV-1">
          <mxGeometry x="591.2421831430194" y="984.7386563941067" width="206.25278972935453" height="26.53770154145742" as="geometry" />
        </mxCell>
        <mxCell id="JrAmXiBmuFasQa5Rlr4j-122" value="{Time constraint 4" style="endArrow=none;html=1;endSize=12;startArrow=none;startSize=14;startFill=0;edgeStyle=orthogonalEdgeStyle;align=center;verticalAlign=bottom;endFill=0;rounded=0;" edge="1" parent="JrAmXiBmuFasQa5Rlr4j-121">
          <mxGeometry y="3" relative="1" as="geometry">
            <mxPoint y="15.92262092487444" as="sourcePoint" />
            <mxPoint x="121.567093558766" y="15.92262092487444" as="targetPoint" />
          </mxGeometry>
        </mxCell>
        <mxCell id="JrAmXiBmuFasQa5Rlr4j-123" value="ERROR!" style="rounded=1;whiteSpace=wrap;html=1;fontSize=12;glass=0;strokeWidth=1;shadow=0;" vertex="1" parent="JrAmXiBmuFasQa5Rlr4j-121">
          <mxGeometry x="120.66563434483625" width="85.58715538451833" height="26.537701541457416" as="geometry" />
        </mxCell>
        <mxCell id="JrAmXiBmuFasQa5Rlr4j-126" value="Yes" style="text;html=1;resizable=0;autosize=1;align=center;verticalAlign=middle;points=[];fillColor=none;strokeColor=none;rounded=0;" vertex="1" parent="WIyWlLk6GJQsqaUBKTNV-1">
          <mxGeometry x="422.0511806826068" y="1022.016778157889" width="40" height="20" as="geometry" />
        </mxCell>
        <mxCell id="JrAmXiBmuFasQa5Rlr4j-127" value="No" style="text;html=1;resizable=0;autosize=1;align=center;verticalAlign=middle;points=[];fillColor=none;strokeColor=none;rounded=0;" vertex="1" parent="WIyWlLk6GJQsqaUBKTNV-1">
          <mxGeometry x="564.1327212794146" y="1020.4653432985423" width="25" height="18" as="geometry" />
        </mxCell>
        <mxCell id="JrAmXiBmuFasQa5Rlr4j-129" value="Results logging, update fields" style="rounded=1;whiteSpace=wrap;html=1;" vertex="1" parent="WIyWlLk6GJQsqaUBKTNV-1">
          <mxGeometry x="303.7132130464955" y="386.70420325539845" width="117.38822471768343" height="70.59028610027673" as="geometry" />
        </mxCell>
        <mxCell id="JrAmXiBmuFasQa5Rlr4j-130" style="edgeStyle=orthogonalEdgeStyle;rounded=0;orthogonalLoop=1;jettySize=auto;html=1;exitX=0.5;exitY=0;exitDx=0;exitDy=0;entryX=0.5;entryY=1;entryDx=0;entryDy=0;" edge="1" parent="WIyWlLk6GJQsqaUBKTNV-1" source="JrAmXiBmuFasQa5Rlr4j-109" target="JrAmXiBmuFasQa5Rlr4j-129">
          <mxGeometry relative="1" as="geometry" />
        </mxCell>
        <mxCell id="JrAmXiBmuFasQa5Rlr4j-133" value="continue?" style="rhombus;whiteSpace=wrap;html=1;shadow=0;fontFamily=Helvetica;fontSize=12;align=center;strokeWidth=1;spacing=6;spacingTop=-4;" vertex="1" parent="WIyWlLk6GJQsqaUBKTNV-1">
          <mxGeometry x="479.172518768532" y="99.84879703016283" width="85.58715538451833" height="72.97867923900789" as="geometry" />
        </mxCell>
        <mxCell id="JrAmXiBmuFasQa5Rlr4j-135" style="edgeStyle=orthogonalEdgeStyle;rounded=0;orthogonalLoop=1;jettySize=auto;html=1;exitX=0.5;exitY=0;exitDx=0;exitDy=0;entryX=0;entryY=0.5;entryDx=0;entryDy=0;startArrow=none;" edge="1" parent="WIyWlLk6GJQsqaUBKTNV-1" source="JrAmXiBmuFasQa5Rlr4j-141" target="JrAmXiBmuFasQa5Rlr4j-133">
          <mxGeometry relative="1" as="geometry" />
        </mxCell>
        <mxCell id="JrAmXiBmuFasQa5Rlr4j-136" value="Finish QC" style="ellipse;whiteSpace=wrap;html=1;" vertex="1" parent="WIyWlLk6GJQsqaUBKTNV-1">
          <mxGeometry x="636.3131830799317" y="44" width="91.17532016907451" height="62.057394373869656" as="geometry" />
        </mxCell>
        <mxCell id="JrAmXiBmuFasQa5Rlr4j-137" style="edgeStyle=orthogonalEdgeStyle;rounded=0;orthogonalLoop=1;jettySize=auto;html=1;exitX=1;exitY=0.5;exitDx=0;exitDy=0;entryX=0.5;entryY=1;entryDx=0;entryDy=0;" edge="1" parent="WIyWlLk6GJQsqaUBKTNV-1" source="JrAmXiBmuFasQa5Rlr4j-133" target="JrAmXiBmuFasQa5Rlr4j-136">
          <mxGeometry relative="1" as="geometry" />
        </mxCell>
        <mxCell id="JrAmXiBmuFasQa5Rlr4j-138" value="Yes" style="text;html=1;strokeColor=none;fillColor=none;align=center;verticalAlign=middle;whiteSpace=wrap;rounded=0;" vertex="1" parent="WIyWlLk6GJQsqaUBKTNV-1">
          <mxGeometry x="472.95740111034" y="168.1147887477393" width="45.587660084537255" height="23.27152289020112" as="geometry" />
        </mxCell>
        <mxCell id="JrAmXiBmuFasQa5Rlr4j-139" value="No" style="text;html=1;strokeColor=none;fillColor=none;align=center;verticalAlign=middle;whiteSpace=wrap;rounded=0;" vertex="1" parent="WIyWlLk6GJQsqaUBKTNV-1">
          <mxGeometry x="588.4461399911678" y="109.16026409256314" width="45.587660084537255" height="23.27152289020112" as="geometry" />
        </mxCell>
        <mxCell id="JrAmXiBmuFasQa5Rlr4j-152" style="edgeStyle=orthogonalEdgeStyle;rounded=0;orthogonalLoop=1;jettySize=auto;html=1;exitX=0.5;exitY=1;exitDx=0;exitDy=0;" edge="1" parent="WIyWlLk6GJQsqaUBKTNV-1" source="JrAmXiBmuFasQa5Rlr4j-142">
          <mxGeometry relative="1" as="geometry">
            <mxPoint x="362.7872225727083" y="368.4715191548043" as="targetPoint" />
            <Array as="points">
              <mxPoint x="196.3922632641474" y="368.24988560346895" />
              <mxPoint x="349.1109245473472" y="368.24988560346895" />
            </Array>
          </mxGeometry>
        </mxCell>
        <mxCell id="JrAmXiBmuFasQa5Rlr4j-142" value="eject cartridge" style="rounded=1;whiteSpace=wrap;html=1;fontSize=12;glass=0;strokeWidth=1;shadow=0;" vertex="1" parent="WIyWlLk6GJQsqaUBKTNV-1">
          <mxGeometry x="153.84647656299293" y="261.3609230624554" width="85.58715538451833" height="26.537701541457416" as="geometry" />
        </mxCell>
        <mxCell id="JrAmXiBmuFasQa5Rlr4j-148" value="No" style="text;html=1;resizable=0;autosize=1;align=center;verticalAlign=middle;points=[];fillColor=none;strokeColor=none;rounded=0;" vertex="1" parent="WIyWlLk6GJQsqaUBKTNV-1">
          <mxGeometry x="281.35246577503" y="256.8568627023729" width="25" height="18" as="geometry" />
        </mxCell>
        <mxCell id="JrAmXiBmuFasQa5Rlr4j-146" value="{Time constraint 7" style="endArrow=none;html=1;endSize=12;startArrow=none;startSize=14;startFill=0;edgeStyle=orthogonalEdgeStyle;align=center;verticalAlign=bottom;endFill=0;rounded=0;" edge="1" parent="WIyWlLk6GJQsqaUBKTNV-1">
          <mxGeometry y="3" relative="1" as="geometry">
            <mxPoint x="172.07884455239426" y="330.5189898241564" as="sourcePoint" />
            <mxPoint x="293.6459381111602" y="330.5189898241564" as="targetPoint" />
          </mxGeometry>
        </mxCell>
        <mxCell id="JrAmXiBmuFasQa5Rlr4j-147" value="ERROR!" style="rounded=1;whiteSpace=wrap;html=1;fontSize=12;glass=0;strokeWidth=1;shadow=0;direction=west;" vertex="1" parent="WIyWlLk6GJQsqaUBKTNV-1">
          <mxGeometry x="73.30827708031043" y="303.98455446135017" width="85.58715538451833" height="26.537701541457416" as="geometry" />
        </mxCell>
        <mxCell id="JrAmXiBmuFasQa5Rlr4j-151" style="edgeStyle=orthogonalEdgeStyle;rounded=0;orthogonalLoop=1;jettySize=auto;html=1;exitX=0;exitY=0.5;exitDx=0;exitDy=0;entryX=1;entryY=0.5;entryDx=0;entryDy=0;" edge="1" parent="WIyWlLk6GJQsqaUBKTNV-1" source="JrAmXiBmuFasQa5Rlr4j-141" target="JrAmXiBmuFasQa5Rlr4j-142">
          <mxGeometry relative="1" as="geometry" />
        </mxCell>
        <mxCell id="JrAmXiBmuFasQa5Rlr4j-141" value="is cartrige ejected?" style="rhombus;whiteSpace=wrap;html=1;shadow=0;fontFamily=Helvetica;fontSize=12;align=center;strokeWidth=1;spacing=6;spacingTop=-4;" vertex="1" parent="WIyWlLk6GJQsqaUBKTNV-1">
          <mxGeometry x="319.61570847265165" y="234.82322152099795" width="85.58715538451833" height="79.61310462437227" as="geometry" />
        </mxCell>
        <mxCell id="JrAmXiBmuFasQa5Rlr4j-150" value="" style="edgeStyle=orthogonalEdgeStyle;rounded=0;orthogonalLoop=1;jettySize=auto;html=1;exitX=0.5;exitY=0;exitDx=0;exitDy=0;entryX=0.5;entryY=1;entryDx=0;entryDy=0;endArrow=none;" edge="1" parent="WIyWlLk6GJQsqaUBKTNV-1" source="JrAmXiBmuFasQa5Rlr4j-129" target="JrAmXiBmuFasQa5Rlr4j-141">
          <mxGeometry relative="1" as="geometry">
            <mxPoint x="362.4073254053372" y="386.7042032553984" as="sourcePoint" />
            <mxPoint x="479.1725187685321" y="136.33813664966678" as="targetPoint" />
          </mxGeometry>
        </mxCell>
        <mxCell id="JrAmXiBmuFasQa5Rlr4j-153" value="Yes" style="text;html=1;strokeColor=none;fillColor=none;align=center;verticalAlign=middle;whiteSpace=wrap;rounded=0;" vertex="1" parent="WIyWlLk6GJQsqaUBKTNV-1">
          <mxGeometry x="303.7132130464955" y="174.56875776262174" width="45.587660084537255" height="23.27152289020112" as="geometry" />
        </mxCell>
        <mxCell id="JrAmXiBmuFasQa5Rlr4j-252" value="ERROR!" style="rounded=1;whiteSpace=wrap;html=1;fontSize=12;glass=0;strokeWidth=1;shadow=0;" vertex="1" parent="WIyWlLk6GJQsqaUBKTNV-1">
          <mxGeometry x="172.00196296763613" y="775.9952443269069" width="85.58715538451833" height="26.537701541457416" as="geometry" />
        </mxCell>
      </root>
    </mxGraphModel>
  </diagram>
</mxfile>
